<svg width="133" height="71" viewBox="0 0 133 71" fill="none" xmlns="http://www.w3.org/2000/svg">
<path d="M28.0617 52.65C23.4917 51.56 20.2517 47.5 20.2217 42.8C20.2817 38.31 23.5517 34.33 26.6717 33.7C27.0017 33.64 28.6217 33.53 32.0017 33.33C34.2217 33.18 34.6617 33.17 35.2817 32.82C36.3417 32.22 37.7517 30.82 39.2817 27.55C41.1217 23.55 41.2817 23.74 41.7717 23.44C42.9217 22.76 44.3317 22.68 45.5517 23.22C47.3017 23.69 47.5517 24.44 49.0917 24.98C51.0017 25.55 53.0517 25.46 54.9017 24.73C58.9017 23.54 80.4817 17.5 110.142 9.05999C111.272 8.40999 112.592 8.14999 113.882 8.32999C115.782 8.68999 117.412 9.89999 118.302 11.62L123.102 12V9.06999L118.882 4.45999V2.64999L106.592 6.22999C105.952 7.11999 105.102 7.83999 104.122 8.32999C103.522 8.62999 102.872 8.82999 102.212 8.92999L55.5317 21.77C54.5317 21.99 53.1017 22.15 52.4117 21.36C51.8817 20.76 52.1117 19.93 52.4117 17.36C52.7117 14.79 52.8817 13.29 52.5817 12.52C51.7517 10.9 50.1917 9.78999 48.3917 9.51999C46.9217 9.24999 45.3917 9.51999 42.3217 11.32C36.5817 14.64 36.8817 16.53 33.5417 17.8C30.8417 18.8 28.1917 18.38 22.8717 17.48C17.5517 16.58 17.0417 15.48 13.3617 15.48C11.1917 15.48 7.44171 15.48 4.41171 17.86C1.38171 20.24 0.671707 23.86 0.311707 25.73C-2.24829 39.28 11.7617 50.6 13.1117 51.66C16.6417 54.44 19.1117 55.13 21.3217 55.11C23.7717 55.03 26.1317 54.17 28.0617 52.65Z" fill="black"/>
<path d="M110.172 5.28999C110.901 5.28999 111.492 4.69901 111.492 3.96999C111.492 3.24098 110.901 2.64999 110.172 2.64999C109.443 2.64999 108.852 3.24098 108.852 3.96999C108.852 4.69901 109.443 5.28999 110.172 5.28999Z" fill="black"/>
<path d="M114.322 3.96001C115.051 3.96001 115.642 3.36902 115.642 2.64001C115.642 1.91099 115.051 1.32001 114.322 1.32001C113.593 1.32001 113.002 1.91099 113.002 2.64001C113.002 3.36902 113.593 3.96001 114.322 3.96001Z" fill="black"/>
<path d="M118.372 2.64C119.101 2.64 119.692 2.04902 119.692 1.32C119.692 0.590984 119.101 0 118.372 0C117.643 0 117.052 0.590984 117.052 1.32C117.052 2.04902 117.643 2.64 118.372 2.64Z" fill="black"/>
<path d="M38.1017 43.36H43.5817V49.4C42.8517 50.08 41.9717 50.61 40.9617 50.98C39.9517 51.35 38.9017 51.54 37.8217 51.54C36.6917 51.54 35.7017 51.36 34.8517 51C34.0017 50.64 33.3017 50.13 32.7417 49.48C32.1817 48.83 31.7617 48.04 31.4817 47.11C31.2017 46.18 31.0617 45.16 31.0617 44.04C31.0617 42.92 31.2117 41.84 31.5217 40.92C31.8317 40 32.2617 39.21 32.8317 38.56C33.4017 37.91 34.0917 37.41 34.9017 37.06C35.7117 36.71 36.6217 36.54 37.6217 36.54C38.5417 36.54 39.3317 36.65 39.9917 36.88C40.6517 37.11 41.2117 37.42 41.6717 37.82C42.1317 38.22 42.5017 38.69 42.7717 39.22C43.0417 39.75 43.2417 40.33 43.3617 40.94L40.4017 41.32C40.3217 40.96 40.2217 40.64 40.1117 40.37C40.0017 40.1 39.8317 39.86 39.6217 39.67C39.4117 39.48 39.1417 39.33 38.8217 39.23C38.5017 39.13 38.1017 39.08 37.6217 39.08C36.4617 39.08 35.5917 39.51 35.0217 40.38C34.4517 41.25 34.1617 42.47 34.1617 44.04C34.1617 45.61 34.4517 46.85 35.0317 47.71C35.6117 48.57 36.5517 49 37.8617 49C38.4917 49 39.0317 48.94 39.4917 48.81C39.9517 48.68 40.3917 48.49 40.8217 48.22V45.84H38.1017V43.36Z" fill="black"/>
<path d="M46.7617 36.9H49.7417V45.4C49.7417 46.61 49.9517 47.51 50.3817 48.1C50.8117 48.69 51.5217 48.98 52.5217 48.98C53.5217 48.98 54.2317 48.69 54.6517 48.1C55.0717 47.51 55.2817 46.61 55.2817 45.4V36.9H58.2617V45.4C58.2617 46.48 58.1317 47.41 57.8617 48.18C57.5917 48.95 57.2117 49.59 56.7217 50.09C56.2317 50.59 55.6217 50.96 54.9117 51.19C54.2017 51.42 53.3917 51.54 52.5017 51.54C51.6117 51.54 50.7817 51.42 50.0717 51.18C49.3617 50.94 48.7517 50.57 48.2617 50.07C47.7717 49.57 47.3917 48.93 47.1417 48.14C46.8917 47.35 46.7617 46.42 46.7617 45.34V36.9Z" fill="black"/>
<path d="M61.9017 36.9H64.8817V51.18H61.9017V36.9Z" fill="black"/>
<path d="M72.1017 39.48H67.8017V36.9H79.4017V39.48H75.1017V51.18H72.1017V39.48Z" fill="black"/>
<path d="M84.4817 36.9H87.3217L92.6817 51.18H89.4817L88.3417 47.88H83.3417L82.2017 51.18H79.1217L84.4817 36.9ZM87.5617 45.42L85.8217 40.3L84.1017 45.42H87.5617Z" fill="black"/>
<path d="M95.3417 36.9H100.402C101.522 36.9 102.442 37.03 103.172 37.29C103.902 37.55 104.472 37.89 104.882 38.31C105.292 38.73 105.582 39.2 105.742 39.71C105.902 40.22 105.982 40.73 105.982 41.22C105.982 42.14 105.812 42.91 105.482 43.54C105.152 44.17 104.592 44.69 103.802 45.12L106.702 51.18H103.482L101.082 45.82H98.2817V51.18H95.3417V36.9ZM100.602 43.34C101.072 43.34 101.452 43.29 101.762 43.19C102.072 43.09 102.312 42.95 102.492 42.77C102.672 42.59 102.792 42.37 102.862 42.12C102.932 41.87 102.962 41.59 102.962 41.28C102.962 41.03 102.922 40.78 102.842 40.55C102.762 40.32 102.622 40.11 102.432 39.93C102.242 39.75 101.972 39.61 101.632 39.51C101.292 39.41 100.862 39.36 100.342 39.36H98.2817V43.34H100.602Z" fill="black"/>
<path d="M49.4017 65.98C49.5617 66.98 49.9617 67.7 50.5917 68.15C51.2217 68.6 52.1717 68.82 53.4217 68.82C54.0517 68.82 54.5717 68.75 54.9917 68.61C55.4117 68.47 55.7517 68.28 56.0017 68.05C56.2517 67.82 56.4317 67.54 56.5417 67.23C56.6517 66.92 56.7017 66.59 56.7017 66.24C56.7017 65.96 56.6717 65.69 56.6017 65.43C56.5317 65.17 56.4017 64.93 56.2117 64.72C56.0217 64.51 55.7517 64.32 55.4117 64.16C55.0717 64 54.6317 63.87 54.1017 63.78L52.3017 63.46C51.5917 63.34 50.9717 63.18 50.4217 62.98C49.8717 62.78 49.4117 62.52 49.0317 62.21C48.6517 61.9 48.3617 61.51 48.1717 61.04C47.9817 60.57 47.8817 60.01 47.8817 59.34C47.8817 58.67 48.0217 58.11 48.2917 57.62C48.5617 57.13 48.9317 56.71 49.4017 56.38C49.8717 56.05 50.4217 55.8 51.0617 55.64C51.7017 55.48 52.3917 55.4 53.1417 55.4C54.0917 55.4 54.8817 55.5 55.5117 55.71C56.1417 55.92 56.6617 56.19 57.0617 56.54C57.4617 56.89 57.7617 57.28 57.9717 57.73C58.1817 58.18 58.3317 58.63 58.4417 59.1L56.7217 59.44C56.6117 59.04 56.4817 58.68 56.3117 58.37C56.1417 58.06 55.9217 57.8 55.6517 57.59C55.3817 57.38 55.0417 57.23 54.6417 57.12C54.2417 57.01 53.7517 56.96 53.1817 56.96C52.5317 56.96 51.9817 57.02 51.5417 57.14C51.1017 57.26 50.7517 57.42 50.4817 57.63C50.2117 57.84 50.0217 58.08 49.9117 58.37C49.8017 58.66 49.7417 58.96 49.7417 59.28C49.7417 59.63 49.7817 59.93 49.8717 60.19C49.9617 60.45 50.1017 60.68 50.3117 60.87C50.5217 61.06 50.7917 61.22 51.1217 61.35C51.4517 61.48 51.8717 61.59 52.3617 61.68L54.3617 62.04C55.8417 62.32 56.9317 62.78 57.6217 63.43C58.3117 64.08 58.6617 65.03 58.6617 66.28C58.6617 66.85 58.5517 67.39 58.3317 67.89C58.1117 68.39 57.7817 68.83 57.3517 69.2C56.9217 69.57 56.3717 69.87 55.7217 70.08C55.0717 70.29 54.3017 70.4 53.4217 70.4C52.5417 70.4 51.8217 70.32 51.1317 70.15C50.4417 69.98 49.8517 69.72 49.3417 69.36C48.8317 69 48.4317 68.54 48.1217 67.98C47.8117 67.42 47.6317 66.75 47.5617 65.98H49.4017Z" fill="black"/>
<path d="M73.4817 65.34C73.4017 66.06 73.2217 66.73 72.9417 67.35C72.6617 67.97 72.2817 68.51 71.8017 68.96C71.3217 69.41 70.7417 69.77 70.0517 70.02C69.3617 70.27 68.5717 70.4 67.6617 70.4C66.6717 70.4 65.7917 70.23 65.0017 69.9C64.2117 69.57 63.5517 69.08 63.0017 68.44C62.4517 67.8 62.0317 67.02 61.7317 66.09C61.4317 65.16 61.2817 64.11 61.2817 62.92C61.2817 61.73 61.4417 60.65 61.7617 59.72C62.0817 58.79 62.5317 58 63.1017 57.36C63.6717 56.72 64.3517 56.23 65.1317 55.9C65.9117 55.57 66.7517 55.4 67.6617 55.4C68.5717 55.4 69.3017 55.51 69.9417 55.74C70.5817 55.97 71.1217 56.29 71.5717 56.7C72.0217 57.11 72.3817 57.61 72.6517 58.18C72.9217 58.75 73.1317 59.39 73.2817 60.08L71.4817 60.38C71.3617 59.86 71.2017 59.39 71.0117 58.97C70.8217 58.55 70.5717 58.19 70.2717 57.9C69.9717 57.61 69.6117 57.38 69.1917 57.23C68.7717 57.08 68.2617 57 67.6617 57C66.9517 57 66.3217 57.14 65.7717 57.43C65.2217 57.72 64.7517 58.12 64.3717 58.63C63.9917 59.14 63.7017 59.76 63.5017 60.49C63.3017 61.22 63.2017 62.02 63.2017 62.9C63.2017 63.78 63.3017 64.58 63.5017 65.31C63.7017 66.04 63.9917 66.66 64.3717 67.18C64.7517 67.7 65.2217 68.1 65.7717 68.38C66.3217 68.66 66.9617 68.8 67.6817 68.8C68.3317 68.8 68.8917 68.72 69.3517 68.55C69.8117 68.38 70.1917 68.15 70.4917 67.84C70.7917 67.53 71.0317 67.17 71.2017 66.74C71.3717 66.31 71.5017 65.85 71.5817 65.34H73.4817Z" fill="black"/>
<path d="M76.7617 55.76H78.6017V61.8H85.8217V55.76H87.6617V70.04H85.8217V63.52H78.6017V70.04H76.7617V55.76Z" fill="black"/>
<path d="M97.6817 70.4C96.7117 70.4 95.8217 70.24 95.0117 69.91C94.2017 69.58 93.5117 69.1 92.9317 68.47C92.3517 67.84 91.9017 67.05 91.5817 66.12C91.2617 65.19 91.1017 64.12 91.1017 62.92C91.1017 61.72 91.2617 60.65 91.5917 59.72C91.9217 58.79 92.3717 58 92.9517 57.36C93.5317 56.72 94.2217 56.23 95.0317 55.9C95.8417 55.57 96.7217 55.4 97.6817 55.4C98.6417 55.4 99.5417 55.56 100.352 55.89C101.162 56.22 101.852 56.7 102.422 57.33C102.992 57.96 103.442 58.74 103.762 59.67C104.082 60.6 104.242 61.66 104.242 62.86C104.242 64.06 104.082 65.13 103.772 66.07C103.462 67.01 103.012 67.8 102.442 68.44C101.872 69.08 101.182 69.57 100.372 69.9C99.5617 70.23 98.6717 70.4 97.6817 70.4ZM97.6817 68.8C98.4417 68.8 99.1117 68.66 99.6917 68.38C100.272 68.1 100.752 67.7 101.142 67.19C101.532 66.68 101.822 66.06 102.022 65.33C102.222 64.6 102.322 63.79 102.322 62.9C102.322 62.01 102.222 61.22 102.022 60.49C101.822 59.76 101.522 59.14 101.132 58.62C100.742 58.1 100.252 57.7 99.6817 57.42C99.1117 57.14 98.4417 57 97.6817 57C96.9217 57 96.2317 57.14 95.6517 57.42C95.0717 57.7 94.5817 58.1 94.1917 58.62C93.8017 59.14 93.5017 59.76 93.3117 60.49C93.1217 61.22 93.0217 62.02 93.0217 62.9C93.0217 63.78 93.1217 64.6 93.3117 65.33C93.5017 66.06 93.7917 66.68 94.1817 67.19C94.5717 67.7 95.0517 68.1 95.6317 68.38C96.2117 68.66 96.8917 68.8 97.6817 68.8Z" fill="black"/>
<path d="M113.762 70.4C112.792 70.4 111.902 70.24 111.092 69.91C110.282 69.58 109.592 69.1 109.012 68.47C108.432 67.84 107.982 67.05 107.662 66.12C107.342 65.19 107.182 64.12 107.182 62.92C107.182 61.72 107.342 60.65 107.672 59.72C108.002 58.79 108.452 58 109.032 57.36C109.612 56.72 110.302 56.23 111.112 55.9C111.922 55.57 112.802 55.4 113.762 55.4C114.722 55.4 115.622 55.56 116.432 55.89C117.242 56.22 117.932 56.7 118.502 57.33C119.072 57.96 119.522 58.74 119.842 59.67C120.162 60.6 120.322 61.66 120.322 62.86C120.322 64.06 120.162 65.13 119.852 66.07C119.542 67.01 119.092 67.8 118.522 68.44C117.952 69.08 117.262 69.57 116.452 69.9C115.642 70.23 114.752 70.4 113.762 70.4ZM113.762 68.8C114.522 68.8 115.192 68.66 115.772 68.38C116.352 68.1 116.832 67.7 117.222 67.19C117.612 66.68 117.902 66.06 118.102 65.33C118.302 64.6 118.402 63.79 118.402 62.9C118.402 62.01 118.302 61.22 118.102 60.49C117.902 59.76 117.602 59.14 117.212 58.62C116.822 58.1 116.332 57.7 115.762 57.42C115.192 57.14 114.522 57 113.762 57C113.002 57 112.312 57.14 111.732 57.42C111.152 57.7 110.662 58.1 110.272 58.62C109.882 59.14 109.582 59.76 109.392 60.49C109.202 61.22 109.102 62.02 109.102 62.9C109.102 63.78 109.202 64.6 109.392 65.33C109.582 66.06 109.872 66.68 110.262 67.19C110.652 67.7 111.132 68.1 111.712 68.38C112.292 68.66 112.972 68.8 113.762 68.8Z" fill="black"/>
<path d="M123.762 55.76H125.602V68.4H133.002L132.722 70.04H123.762V55.76Z" fill="black"/>
</svg>
